<?xml version="1.0" standalone="no"?>
<!DOCTYPE svg PUBLIC "-//W3C//DTD SVG 20010904//EN"
 "http://www.w3.org/TR/2001/REC-SVG-20010904/DTD/svg10.dtd">
<svg version="1.0" xmlns="http://www.w3.org/2000/svg"
 width="500.000000pt" height="500.000000pt" viewBox="0 0 500.000000 500.000000"
 preserveAspectRatio="xMidYMid meet">
<metadata>
Created by potrace 1.11, written by Peter Selinger 2001-2013
</metadata>
<g transform="translate(0.000000,500.000000) scale(0.100000,-0.100000)"
fill="#000000" stroke="none">
<path d="M0 2500 l0 -2500 2500 0 2500 0 0 2500 0 2500 -2500 0 -2500 0 0
-2500z m2578 917 l2 -609 51 46 c61 55 151 100 245 122 148 35 363 -2 490 -84
130 -85 236 -240 269 -397 19 -91 19 -272 -1 -355 -70 -299 -322 -491 -644
-491 -153 -1 -284 42 -375 122 l-35 31 0 -61 0 -61 -150 0 -150 0 0 1168 c0
643 3 1172 7 1176 4 3 70 5 147 4 l141 -3 3 -608z m-673 179 c69 -53 92 -143
56 -222 -57 -125 -231 -139 -308 -25 -60 89 -32 204 62 259 57 32 138 27 190
-12z m33 -1286 c2 -413 -1 -679 -8 -739 -13 -115 -48 -224 -101 -313 -42 -71
-143 -188 -163 -188 -10 0 -172 169 -190 198 -5 8 10 31 39 64 53 59 92 130
111 203 11 39 14 194 14 731 0 374 3 684 7 688 4 3 70 5 147 4 l141 -3 3 -645z"/>
<path d="M2843 2686 c-104 -34 -185 -106 -232 -205 -23 -49 -26 -68 -26 -161
0 -99 2 -110 33 -172 41 -83 120 -158 200 -189 44 -18 78 -23 152 -23 84 -1
102 3 157 28 109 50 182 152 204 285 30 181 -53 358 -199 424 -59 27 -224 34
-289 13z"/>
</g>
</svg>
